<?xml version="1.0" encoding="UTF-8" standalone="no"?>
<!DOCTYPE svg PUBLIC "-//W3C//DTD SVG 1.1//EN" "http://www.w3.org/Graphics/SVG/1.1/DTD/svg11.dtd">
<svg width="100%" height="100%" viewBox="0 0 267 80" version="1.1" xmlns="http://www.w3.org/2000/svg" xmlns:xlink="http://www.w3.org/1999/xlink" xml:space="preserve" xmlns:serif="http://www.serif.com/" style="fill-rule:evenodd;clip-rule:evenodd;stroke-linecap:round;stroke-linejoin:round;stroke-miterlimit:1.5;">
    <g transform="matrix(1.33333,0,0,1.33333,0,0)">
        <g id="dsi_logo" transform="matrix(1.45942,0,0,0.745951,369.122,27.002)">
            <rect x="-252.925" y="-36.198" width="137.041" height="80.434" style="fill:none;"/>
            <g>
                <g transform="matrix(0.954983,0,0,1.86837,-261.31,-53.296)">
                    <circle cx="29.982" cy="32.09" r="18.986" style="fill:none;stroke:white;stroke-width:0.72px;"/>
                </g>
                <g transform="matrix(1.0035,0,0,1.96329,-324.03,-52.2391)">
                    <path d="M86.392,12.688C82.15,25.662 85.498,41.628 96.223,47.197" style="fill:none;stroke:white;stroke-width:0.34px;"/>
                </g>
                <g transform="matrix(1.0035,0,0,1.96329,-324.03,-52.2391)">
                    <path d="M83.886,13.645C76.337,24.602 80.102,44.855 93.746,47.197" style="fill:none;stroke:white;stroke-width:0.34px;"/>
                </g>
                <g transform="matrix(1.0035,0,0,1.96329,-324.03,-52.2391)">
                    <path d="M82.164,14.32C76.947,20.029 75.254,27.46 76.671,33.946C78.149,40.714 83.009,46.455 90.786,48.152C90.878,48.172 90.969,48.113 90.99,48.021C91.01,47.929 90.951,47.838 90.859,47.818C83.225,46.153 78.455,40.516 77.004,33.873C75.61,27.487 77.28,20.171 82.416,14.551C82.48,14.481 82.475,14.373 82.406,14.309C82.336,14.246 82.228,14.251 82.164,14.32Z" style="fill:white;"/>
                </g>
                <g transform="matrix(1.0035,0,0,1.96329,-324.03,-52.2391)">
                    <path d="M88.606,12.261C100.411,14.212 108.859,31.545 97.624,46.292" style="fill:none;stroke:white;stroke-width:0.34px;"/>
                </g>
                <g transform="matrix(1.0035,0,0,1.96329,-324.03,-52.2391)">
                    <path d="M91.93,11.878C108.397,16.76 112.597,30.341 100.928,44.884" style="fill:none;stroke:white;stroke-width:0.34px;"/>
                </g>
                <g transform="matrix(1.0035,0,0,1.96329,-324.03,-52.2391)">
                    <path d="M106.768,38.454C102.969,41.101 99.034,42.937 94.978,44.041C90.772,45.186 86.436,45.544 81.983,45.205C81.889,45.198 81.807,45.269 81.8,45.363C81.793,45.456 81.863,45.539 81.957,45.546C86.449,45.888 90.825,45.526 95.068,44.371C99.16,43.256 103.13,41.405 106.963,38.734C107.041,38.68 107.06,38.573 107.006,38.496C106.952,38.419 106.845,38.4 106.768,38.454Z" style="fill:white;"/>
                </g>
                <g transform="matrix(1.0035,0,0,1.96329,-324.03,-52.2391)">
                    <path d="M78.25,42.523C83.466,42.771 88.952,42.08 94.315,40.571C99.485,39.116 104.54,36.9 109.127,34.032C109.207,33.982 109.232,33.877 109.182,33.797C109.132,33.717 109.026,33.693 108.946,33.743C104.387,36.593 99.362,38.796 94.222,40.242C88.896,41.741 83.447,42.429 78.267,42.182C78.172,42.177 78.092,42.25 78.088,42.344C78.083,42.438 78.156,42.518 78.25,42.523Z" style="fill:white;"/>
                </g>
                <g transform="matrix(1.0035,0,0,1.96329,-324.03,-52.2391)">
                    <path d="M75.427,38.756C81.261,38.858 87.093,38.075 92.923,36.384C98.325,34.818 103.725,32.472 109.123,29.329C109.204,29.281 109.232,29.177 109.184,29.095C109.137,29.014 109.032,28.986 108.951,29.034C103.578,32.162 98.204,34.497 92.828,36.056C87.032,37.737 81.233,38.516 75.433,38.414C75.339,38.412 75.261,38.488 75.259,38.582C75.258,38.676 75.333,38.754 75.427,38.756Z" style="fill:white;"/>
                </g>
                <g transform="matrix(1.0035,0,0,1.96329,-324.03,-52.2391)">
                    <path d="M73.735,34.954C79.852,34.761 85.784,33.794 91.555,32.157C97.283,30.532 102.854,28.248 108.29,25.406C108.374,25.362 108.406,25.259 108.362,25.176C108.319,25.092 108.215,25.06 108.132,25.103C102.716,27.934 97.168,30.21 91.462,31.828C85.717,33.457 79.813,34.42 73.724,34.613C73.63,34.616 73.556,34.695 73.559,34.789C73.562,34.883 73.641,34.957 73.735,34.954Z" style="fill:white;"/>
                </g>
                <g transform="matrix(1.0035,0,0,1.96329,-324.03,-52.2391)">
                    <path d="M72.972,30.719C79.017,30.486 84.88,29.625 90.544,28.074C96.22,26.519 101.695,24.27 106.95,21.262C107.032,21.215 107.061,21.111 107.014,21.029C106.967,20.947 106.863,20.919 106.781,20.966C101.551,23.96 96.102,26.198 90.453,27.745C84.815,29.289 78.977,30.146 72.959,30.378C72.865,30.382 72.791,30.461 72.795,30.555C72.799,30.65 72.878,30.723 72.972,30.719Z" style="fill:white;"/>
                </g>
                <g transform="matrix(1.0035,0,0,1.96329,-324.03,-52.2391)">
                    <path d="M73.72,25.363C79.14,25.649 84.402,24.934 89.336,23.529C94.561,22.042 99.418,19.782 103.707,17.118C103.787,17.068 103.812,16.963 103.762,16.883C103.712,16.803 103.607,16.778 103.527,16.828C99.264,19.476 94.436,21.723 89.243,23.201C84.343,24.596 79.119,25.306 73.738,25.022C73.644,25.017 73.564,25.09 73.559,25.184C73.554,25.278 73.626,25.358 73.72,25.363Z" style="fill:white;"/>
                </g>
                <g transform="matrix(1.0035,0,0,1.96329,-324.03,-52.2391)">
                    <path d="M86.292,12.722C87.539,18.794 88.928,24.626 90.474,30.189C92.146,36.205 94.002,41.907 96.064,47.259C96.098,47.347 96.197,47.391 96.285,47.357C96.373,47.323 96.417,47.224 96.383,47.136C94.324,41.794 92.472,36.103 90.803,30.098C89.259,24.541 87.872,18.717 86.626,12.653C86.607,12.561 86.517,12.502 86.425,12.521C86.333,12.539 86.273,12.63 86.292,12.722Z" style="fill:white;"/>
                </g>
                <g transform="matrix(1.0035,0,0,1.96329,-324.03,-52.2391)">
                    <path d="M75.875,20.17C79.746,20.937 84.057,20.453 87.967,19.324C92.546,18.003 96.575,15.798 98.711,13.696C98.779,13.63 98.779,13.521 98.713,13.454C98.647,13.387 98.539,13.386 98.472,13.452C96.365,15.525 92.388,17.693 87.873,18.996C84.014,20.11 79.761,20.592 75.942,19.835C75.849,19.817 75.759,19.877 75.741,19.97C75.723,20.062 75.783,20.152 75.875,20.17Z" style="fill:white;"/>
                </g>
                <g transform="matrix(1.0035,0,0,1.96329,-324.03,-52.2391)">
                    <path d="M86.459,12.688C95.881,18.214 102.218,33.875 96.223,47.197" style="fill:none;stroke:white;stroke-width:0.34px;"/>
                </g>
            </g>
            <g transform="matrix(0.977857,0.440975,-0.225395,1.91312,-329.784,-101.338)">
                <path d="M118.688,9.419L119.6,7.596C119.611,7.574 119.628,7.555 119.649,7.542C119.67,7.529 119.694,7.522 119.72,7.522C119.745,7.522 119.769,7.529 119.79,7.542C119.811,7.555 119.828,7.574 119.84,7.596L120.75,9.417L120.752,9.423L120.753,9.424C120.91,10.024 120.995,10.614 121.022,11.193C121.049,11.795 121.012,12.386 120.927,12.965C120.953,12.999 120.983,13.034 121.014,13.07C121.046,13.105 121.081,13.142 121.119,13.179C121.351,13.407 121.466,13.6 121.517,13.755C121.59,13.973 121.54,14.118 121.505,14.184C121.491,14.212 121.479,14.226 121.479,14.226C121.473,14.235 121.462,14.241 121.45,14.241L120.66,14.241L120.617,14.399L120.72,14.399L120.72,14.467L118.867,14.467C118.852,14.467 118.838,14.457 118.834,14.442L118.779,14.241L118.078,14.241C118.066,14.241 118.056,14.235 118.049,14.226C118.049,14.226 118.037,14.212 118.023,14.184C117.988,14.118 117.938,13.973 118.011,13.755C118.063,13.6 118.178,13.407 118.409,13.179L118.526,13.055C118.434,12.461 118.391,11.856 118.416,11.239C118.44,10.645 118.525,10.04 118.687,9.424L118.688,9.419ZM118.746,9.467C118.59,10.069 118.507,10.661 118.484,11.242C118.46,11.86 118.503,12.466 118.597,13.06C118.598,13.07 118.595,13.08 118.589,13.088L118.457,13.228C118.236,13.446 118.125,13.629 118.076,13.776C118.012,13.967 118.053,14.095 118.083,14.153C118.088,14.161 118.092,14.168 118.095,14.173L118.805,14.173C118.821,14.173 118.834,14.184 118.838,14.199L118.893,14.399L120.547,14.399L120.601,14.199C120.605,14.184 120.619,14.173 120.634,14.173L121.433,14.173C121.436,14.168 121.44,14.161 121.445,14.153C121.475,14.095 121.517,13.967 121.453,13.776C121.403,13.629 121.292,13.446 121.071,13.228C121.032,13.19 120.996,13.152 120.964,13.115C120.927,13.074 120.894,13.034 120.864,12.995L120.857,12.97C120.943,12.39 120.981,11.799 120.953,11.196C120.928,10.63 120.845,10.054 120.693,9.467L118.746,9.467ZM120.665,9.399L119.779,7.627C119.773,7.616 119.765,7.607 119.754,7.6C119.744,7.594 119.732,7.59 119.72,7.59C119.707,7.59 119.695,7.594 119.685,7.6C119.675,7.607 119.666,7.616 119.661,7.627L118.775,9.399L120.665,9.399Z" style="fill:white;"/>
                <path d="M118.563,13.066C118.379,11.9 118.39,10.69 118.72,9.433L120.72,9.433C121.041,10.658 121.06,11.837 120.891,12.975C120.947,13.048 121.014,13.124 121.095,13.203C121.755,13.854 121.45,14.207 121.45,14.207L120.634,14.207C120.615,14.283 120.594,14.358 120.573,14.433L120.72,14.433L118.867,14.433C118.846,14.358 118.825,14.283 118.805,14.207L118.078,14.207C118.078,14.207 117.773,13.854 118.433,13.203C118.481,13.156 118.524,13.111 118.563,13.066ZM119.72,7.556C119.758,7.556 119.792,7.578 119.809,7.612C120.055,8.102 120.72,9.433 120.72,9.433L118.72,9.433C118.72,9.433 119.385,8.102 119.63,7.612C119.647,7.578 119.682,7.556 119.72,7.556Z" style="fill:white;"/>
                <g transform="matrix(0.974448,-0.22461,0.22461,0.97445,11.2055,23.0816)">
                    <path d="M74.417,38.594C73.098,40.933 72.72,42.712 72.89,44.005C73.099,45.592 74.128,46.458 75.279,46.746C78.545,47.564 82.335,46.564 86.299,44.299C90.61,41.836 95.128,37.875 99.381,33.105C101.76,30.452 103.419,28.25 104.81,25.583C106.024,23.254 107.031,20.57 108.122,16.913C108.225,16.547 108.011,16.166 107.645,16.064C107.28,15.961 106.899,16.174 106.796,16.54C105.846,20.139 104.953,22.789 103.84,25.096C102.567,27.735 101.01,29.923 98.772,32.575C94.679,37.394 90.31,41.43 86.099,43.958C82.253,46.268 78.544,47.32 75.319,46.578C74.213,46.323 73.22,45.506 72.993,43.991C72.8,42.71 73.15,40.94 74.417,38.594Z" style="fill:rgb(255,38,0);"/>
                </g>
            </g>
            <g transform="matrix(0.685206,0,0,1.34057,-255.583,-31.4765)">
                <text x="69.09px" y="22.681px" style="font-family:'ArialMT', 'Arial', sans-serif;font-size:24px;fill:white;">DSI Space</text>
                <text x="69.09px" y="47.466px" style="font-family:'ArialMT', 'Arial', sans-serif;font-size:24px;fill:white;">Industries</text>
            </g>
        </g>
    </g>
</svg>
